<?xml version="1.0" encoding="UTF-8" standalone="no"?>
<!-- Created with Inkscape (http://www.inkscape.org/) -->

<svg
   width="512"
   height="512"
   viewBox="0 0 135.46666 135.46667"
   version="1.1"
   id="svg5"
   xml:space="preserve"
   inkscape:version="1.2.2 (b0a8486541, 2022-12-01)"
   sodipodi:docname="logo.svg"
   inkscape:export-filename="logo.png"
   inkscape:export-xdpi="96"
   inkscape:export-ydpi="96"
   xmlns:inkscape="http://www.inkscape.org/namespaces/inkscape"
   xmlns:sodipodi="http://sodipodi.sourceforge.net/DTD/sodipodi-0.dtd"
   xmlns="http://www.w3.org/2000/svg"
   xmlns:svg="http://www.w3.org/2000/svg"><sodipodi:namedview
     id="namedview7"
     pagecolor="#676767"
     bordercolor="#eeeeee"
     borderopacity="1"
     inkscape:showpageshadow="0"
     inkscape:pageopacity="0"
     inkscape:pagecheckerboard="true"
     inkscape:deskcolor="#505050"
     inkscape:document-units="mm"
     showgrid="false"
     inkscape:zoom="1.1893044"
     inkscape:cx="285.88139"
     inkscape:cy="304.80002"
     inkscape:window-width="2560"
     inkscape:window-height="1519"
     inkscape:window-x="0"
     inkscape:window-y="45"
     inkscape:window-maximized="1"
     inkscape:current-layer="layer1" /><defs
     id="defs2" /><g
     inkscape:label="Calque 1"
     inkscape:groupmode="layer"
     id="layer1"><path
       style="color:#000000;fill:#ffffff;stroke-linecap:round;stroke-linejoin:round;-inkscape-stroke:none"
       d="m 23.740234,7.0234375 c -8.983856,0 -16.380859,7.3970025 -16.380859,16.3808595 V 111.4668 c 0,8.98385 7.397003,16.38086 16.380859,16.38086 h 87.863286 c 8.98385,0 16.38085,-7.39701 16.38086,-16.38086 V 23.404297 c 0,-8.983857 -7.39701,-16.3808595 -16.38086,-16.3808595 z m 0,10.5624995 h 87.863286 c 3.3144,0 5.81836,2.503958 5.81836,5.81836 V 111.4668 c 0,3.3144 -2.50396,5.81836 -5.81836,5.81836 H 23.740234 c -3.314402,0 -5.818359,-2.50396 -5.818359,-5.81836 V 23.404297 c 0,-3.314402 2.503957,-5.81836 5.818359,-5.81836 z"
       id="rect3297" /><path
       id="path3351"
       style="fill:#ffffff;stroke-width:25.1125;stroke-linecap:round;stroke-linejoin:round"
       d="m 42.999457,30.231853 a 6.6919889,6.6919889 0 0 1 -6.691989,6.691989 6.6919889,6.6919889 0 0 1 -6.691989,-6.691989 6.6919889,6.6919889 0 0 1 6.691989,-6.691988 6.6919889,6.6919889 0 0 1 6.691989,6.691988 z" /><path
       id="circle3717"
       style="fill:#ffffff;stroke-width:25.1125;stroke-linecap:round;stroke-linejoin:round"
       d="m 63.920199,30.231853 a 6.6919889,6.6919889 0 0 1 -6.691989,6.691989 6.6919889,6.6919889 0 0 1 -6.691988,-6.691989 6.6919889,6.6919889 0 0 1 6.691988,-6.691988 6.6919889,6.6919889 0 0 1 6.691989,6.691988 z" /><path
       id="circle3719"
       style="fill:#ffffff;stroke-width:25.1125;stroke-linecap:round;stroke-linejoin:round"
       d="m 84.733775,30.231853 a 6.6919889,6.6919889 0 0 1 -6.691989,6.691989 6.6919889,6.6919889 0 0 1 -6.691989,-6.691989 6.6919889,6.6919889 0 0 1 6.691989,-6.691988 6.6919889,6.6919889 0 0 1 6.691989,6.691988 z" /><path
       id="circle3721"
       style="fill:#ffffff;stroke-width:25.1125;stroke-linecap:round;stroke-linejoin:round"
       d="m 105.61492,30.231853 a 6.6919889,6.6919889 0 0 1 -6.691985,6.691989 6.6919889,6.6919889 0 0 1 -6.691988,-6.691989 6.6919889,6.6919889 0 0 1 6.691988,-6.691988 6.6919889,6.6919889 0 0 1 6.691985,6.691988 z" /><path
       id="circle3725"
       style="fill:#ffffff;stroke-width:25.1125;stroke-linecap:round;stroke-linejoin:round"
       d="m 63.920199,51.074387 a 6.6919889,6.6919889 0 0 1 -6.691989,6.691989 6.6919889,6.6919889 0 0 1 -6.691988,-6.691989 6.6919889,6.6919889 0 0 1 6.691988,-6.691989 6.6919889,6.6919889 0 0 1 6.691989,6.691989 z" /><path
       id="circle3727"
       style="fill:#ffffff;stroke-width:25.1125;stroke-linecap:round;stroke-linejoin:round"
       d="m 42.999457,51.043598 a 6.6919889,6.6919889 0 0 1 -6.691989,6.691989 6.6919889,6.6919889 0 0 1 -6.691989,-6.691989 6.6919889,6.6919889 0 0 1 6.691989,-6.691989 6.6919889,6.6919889 0 0 1 6.691989,6.691989 z" /><path
       style="color:#000000;fill:#ffffff;stroke-linecap:round;stroke-linejoin:round;-inkscape-stroke:none"
       d="m 93.292969,53.880859 c -1.979121,0.158648 -4.041156,1.068221 -5.783203,2.884766 -0.0024,0.0025 -0.0054,0.0033 -0.0078,0.0059 l -14.4375,14.376953 -27.478516,-3.435546 a 1.5268427,1.5268427 0 0 0 -1.171875,0.345703 L 40.992187,70.9375 a 1.5268427,1.5268427 0 0 0 -0.02344,0.01953 c -0.67275,0.589235 -1.196994,1.446461 -1.142578,2.464844 0.05442,1.018383 0.775229,1.927815 1.669922,2.404297 a 1.5268427,1.5268427 0 0 0 0.06445,0.0332 l 18.773437,8.884766 -6.322265,7.113281 -8.195313,-0.353516 a 1.5268427,1.5268427 0 0 0 -1.183594,0.486328 l -2.523437,2.716797 0.06641,0.02539 c -0.593287,0.525032 -0.803909,1.171703 -0.726562,1.849609 0.091,0.797612 0.758367,1.681831 1.654297,1.976563 l -0.191407,-0.07617 8.886719,4.312498 5.287109,8.9336 a 1.5268427,1.5268427 0 0 0 0.08594,0.13086 c 0.577204,0.78006 1.332576,0.92242 1.976562,0.92578 0.643987,0.003 1.337684,-0.14506 1.9375,-0.77735 l -0.07617,0.0762 2.197265,-2.01367 a 1.5268427,1.5268427 0 0 0 0.470703,-1.39258 l -1.259765,-7.09179 7.978515,-7.193362 9.095703,16.765622 -0.04102,-0.082 c 0.241345,0.51667 0.716665,0.93629 1.195312,1.125 0.478648,0.18871 0.937115,0.19582 1.345703,0.12891 0.817177,-0.13382 1.528951,-0.54299 2.039063,-1.28906 l -0.0957,0.125 2.929687,-3.45899 a 1.5268427,1.5268427 0 0 0 0.34961,-1.1875 L 83.888672,81.335937 98.421875,66.728516 a 1.5268427,1.5268427 0 0 0 0.06641,-0.07031 c 1.773849,-2.021937 2.586989,-4.192419 2.523439,-6.197266 -0.0635,-2.004846 -1.0061,-3.776432 -2.421876,-4.960937 -1.415776,-1.184505 -3.314979,-1.77801 -5.296875,-1.619141 z m 0.246093,2.970703 c 1.208741,-0.09015 2.295138,0.323712 3.091797,0.990235 0.79666,0.666523 1.292446,1.589185 1.328125,2.714844 0.03556,1.121703 -0.392173,2.511512 -1.755859,4.072265 L 81.193359,79.714844 a 1.5268427,1.5268427 0 0 0 -0.429687,1.277343 l 3.333984,25.257813 -2.3125,2.73242 -9.628906,-17.749998 a 1.5268427,1.5268427 0 0 0 -2.363281,-0.40625 l -10.048828,9.058594 a 1.5268427,1.5268427 0 0 0 -0.480469,1.400394 l 1.261719,7.09961 -1.212891,1.11328 -5.121094,-8.6543 a 1.5268427,1.5268427 0 0 0 -0.646484,-0.5957 l -8.558594,-4.152347 1.404297,-1.511719 8.214844,0.353516 A 1.5268427,1.5268427 0 0 0 55.8125,94.427734 l 8.15625,-9.179687 a 1.5268427,1.5268427 0 0 0 -0.488281,-2.392578 l -20.423828,-9.666016 2.8125,-2.365234 27.554687,3.447265 a 1.5268427,1.5268427 0 0 0 1.267578,-0.433593 L 89.683594,58.910156 a 1.5268427,1.5268427 0 0 0 0.02539,-0.02734 c 1.290234,-1.347989 2.621338,-1.941101 3.830078,-2.03125 z M 44.144531,96.832031 c -0.07252,0.07906 0.02205,0.130644 -0.126953,0.220703 l -0.244141,-0.136718 a 1.5268427,1.5268427 0 0 0 0.371094,-0.08398 z"
       id="path3792" /></g></svg>
